#!OML:ASF F:\VICON\USERDATA\INSTALL\rory3\rory3.ASF
:FULLY-SPECIFIED
:DEGREES
165
root 4.03663 17.5705 3.62152 20.4506 -16.8786 -1.13853
lowerback -9.7928 3.92128 2.8296
upperback -11.8114 5.00522 -0.373522
thorax -6.72204 2.24735 -1.76306
lowerneck -4.31843 12.5757 10.229
upperneck 22.3221 14.8571 6.54738
head 7.96665 8.48598 1.78625
rclavicle 4.89507e-014 2.34566e-014
rhumerus 7.00833 -24.9781 2.66115
rradius 118.993
rwrist -59.6917
rhand -8.47701 -47.6439
rfingers 7.12502
rthumb 17.4498 -76.8807
lclavicle 4.89507e-014 2.34566e-014
lhumerus 32.8853 31.7031 -13.1215
lradius 35.2901
lwrist 40.2992
lhand -28.4457 -20.642
lfingers 7.12502
lthumb -1.81633 9.33006
rfemur -7.21022 5.59108 -5.14613
rtibia 8.22802
rfoot -31.9484 -21.6852
rtoes 52.9993
lfemur -24.3707 1.06006 -27.7805
ltibia 18.6594
lfoot -12.9398 9.98796
ltoes 9.94739
166
root 4.04264 17.5712 3.61797 20.5629 -16.9085 -1.35702
lowerback -9.92052 3.98386 3.04572
upperback -11.7546 5.07399 -0.315934
thorax -6.57385 2.27183 -1.8063
lowerneck -4.42703 12.3557 10.0431
upperneck 22.5684 14.5583 6.51611
head 8.04913 8.33498 1.79259
rclavicle 6.31141e-015 2.24627e-014
rhumerus 7.29732 -25.1173 2.35654
rradius 118.909
rwrist -59.6763
rhand -8.15809 -47.629
rfingers 7.12502
rthumb 17.7567 -76.8383
lclavicle 6.31141e-015 2.24627e-014
lhumerus 33.4455 32.3675 -12.0455
lradius 35.2258
lwrist 39.4816
lhand -28.2287 -20.6492
lfingers 7.12502
lthumb -1.60677 9.3245
rfemur -7.5672 5.66175 -4.97212
rtibia 8.67777
rfoot -31.4141 -22.2074
rtoes 52.6647
lfemur -24.4709 1.10158 -27.588
ltibia 18.7264
lfoot -12.9749 10.0286
ltoes 10.189
167
root 4.0488 17.5744 3.59682 20.5851 -16.9018 -1.4991
lowerback -9.69361 4.01477 3.16915
upperback -11.723 5.12132 -0.291911
thorax -6.65484 2.28623 -1.86165
lowerneck -4.98445 12.2401 9.52123
upperneck 23.1709 14.2906 6.92223
head 8.27014 8.22426 2.03624
rclavicle 2.44505e-014 -6.55989e-015
rhumerus 7.62044 -25.2738 1.97752
rradius 118.851
rwrist -59.7584
rhand -7.53212 -47.996
rfingers 7.12502
rthumb 18.359 -77.1496
lclavicle 2.44505e-014 -6.55989e-015
lhumerus 34.175 33.1379 -10.8151
lradius 35.1262
lwrist 38.5558
lhand -27.9246 -20.8151
lfingers 7.12502
lthumb -1.3131 9.16063
rfemur -7.62774 5.71041 -4.82296
rtibia 8.58879
rfoot -30.8334 -23.3918
rtoes 52.2037
lfemur -24.6788 1.09885 -27.4223
ltibia 18.9644
lfoot -12.9995 10.0311
ltoes 10.4518
168
root 4.05567 17.5747 3.59121 20.5788 -16.7672 -1.61917
lowerback -9.69745 4.0152 3.38783
upperback -11.62 5.11009 -0.29742
thorax -6.52168 2.26835 -1.98286
lowerneck -5.5455 12.0884 8.99914
upperneck 23.7641 13.9721 7.34178
head 8.49141 8.09042 2.28136
rclavicle -2.75814e-014 2.38542e-015
rhumerus 7.7575 -25.3514 1.76126
rradius 118.918
rwrist -60.1044
rhand -7.53513 -48.2755
rfingers 7.12502
rthumb 18.3561 -77.4294
lclavicle -2.75814e-014 2.38542e-015
lhumerus 34.2998 33.207 -10.5849
lradius 35.2746
lwrist 38.8154
lhand -28.5936 -21.1333
lfingers 7.12502
lthumb -1.95923 8.83748
rfemur -7.6176 5.65142 -4.6503
rtibia 8.62061
rfoot -29.4584 -25.3313
rtoes 51.2051
lfemur -24.758 1.10942 -27.3033
ltibia 19.1763
lfoot -13.0667 9.95929
ltoes 10.3983
169
root 4.05995 17.5732 3.59055 20.6376 -16.7011 -1.7614
lowerback -9.90095 4.02799 3.58884
upperback -11.5122 5.10506 -0.291305
thorax -6.27543 2.25833 -2.06727
lowerneck -5.64275 11.8853 8.72992
upperneck 23.9967 13.6896 7.41571
head 8.55721 7.94874 2.33272
rclavicle -5.54112e-014 -2.76311e-014
rhumerus 7.8395 -25.3467 1.62045
rradius 118.973
rwrist -60.3278
rhand -7.87076 -48.2454
rfingers 7.12502
rthumb 18.0332 -77.4294
lclavicle -5.54112e-014 -2.76311e-014
lhumerus 33.9047 32.8446 -11.058
lradius 35.7066
lwrist 39.9726
lhand -29.2655 -21.161
lfingers 7.12502
lthumb -2.60813 8.80284
rfemur -7.75685 5.63226 -4.49483
rtibia 8.82602
rfoot -28.8949 -25.928
rtoes 50.7609
lfemur -24.8444 1.12095 -27.1777
ltibia 19.3386
lfoot -13.1463 9.97018
ltoes 10.145
170
root 4.06035 17.573 3.57205 20.5947 -16.7359 -1.73343
lowerback -9.75923 4.00054 3.49056
upperback -11.5249 5.08111 -0.288076
thorax -6.37665 2.25112 -2.02204
lowerneck -5.4885 11.6837 8.62843
upperneck 24.1898 13.4542 7.31935
head 8.59268 7.82448 2.29169
rclavicle -8.11787e-014 -4.1546e-014
rhumerus 8.07639 -25.1537 1.31827
rradius 118.934
rwrist -60.1002
rhand -8.1373 -48.0754
rfingers 7.12502
rthumb 17.7767 -77.2828
lclavicle -8.11787e-014 -4.1546e-014
lhumerus 33.6913 32.6742 -11.1825
lradius 36.125
lwrist 40.8462
lhand -29.3641 -21.2782
lfingers 7.12502
lthumb -2.7033 8.68438
rfemur -7.88462 5.67016 -4.51391
rtibia 8.96483
rfoot -29.6663 -25.1263
rtoes 51.3645
lfemur -24.9852 1.08686 -27.1811
ltibia 19.5232
lfoot -13.1579 10.0291
ltoes 10.193
171
root 4.06338 17.5721 3.54999 20.5097 -16.6873 -1.67865
lowerback -9.4963 3.96367 3.4371
upperback -11.5671 5.04768 -0.323263
thorax -6.57158 2.23177 -2.05206
lowerneck -5.48684 11.498 8.70057
upperneck 24.5436 13.2183 7.11465
head 8.73504 7.70873 2.21302
rclavicle -5.01931e-015 3.18055e-015
rhumerus 8.32177 -24.9513 0.947457
rradius 118.805
rwrist -59.8175
rhand -8.54315 -47.9195
rfingers 7.12502
rthumb 17.3862 -77.1619
lclavicle -5.01931e-015 3.18055e-015
lhumerus 33.6072 32.503 -11.2068
lradius 36.519
lwrist 41.6187
lhand -29.6314 -21.7657
lfingers 7.12502
lthumb -2.96154 8.19344
rfemur -7.95502 5.64212 -4.52806
rtibia 9.17287
rfoot -30.6669 -23.8878
rtoes 52.1123
lfemur -25.1078 1.0122 -27.1912
ltibia 19.7123
lfoot -13.1755 10.0039
ltoes 10.7918
172
root 4.0699 17.5704 3.53501 20.4984 -16.6259 -1.81677
lowerback -9.36508 3.97723 3.64266
upperback -11.5565 5.063 -0.333863
thorax -6.61567 2.22269 -2.18429
lowerneck -5.42581 11.3957 8.32812
upperneck 24.5863 13.048 7.48936
head 8.67843 7.63482 2.36464
rclavicle 1.01132e-014 7.15625e-015
rhumerus 8.5746 -24.8892 0.618092
rradius 118.648
rwrist -59.8243
rhand -8.81217 -47.9977
rfingers 7.12502
rthumb 17.1272 -77.2628
lclavicle 1.01132e-014 7.15625e-015
lhumerus 33.6813 32.3988 -11.0659
lradius 36.776
lwrist 41.7672
lhand -29.6207 -21.9562
lfingers 7.12502
lthumb -2.95119 8.00308
rfemur -8.07952 5.65399 -4.3709
rtibia 9.47998
rfoot -31.3692 -22.7028
rtoes 52.5506
lfemur -25.2173 1.00671 -27.0384
ltibia 19.8984
lfoot -13.2575 9.99192
ltoes 10.9262
173
root 4.07514 17.5691 3.52378 20.4773 -16.6985 -1.96855
lowerback -9.28737 4.01694 3.78095
upperback -11.4838 5.11406 -0.300368
thorax -6.568 2.24162 -2.22507
lowerneck -5.98846 10.906 8.6616
upperneck 25.2381 12.4425 6.55322
head 9.09825 7.30361 2.02982
rclavicle -1.9953e-014 -2.78299e-014
rhumerus 8.83042 -24.8504 0.32006
rradius 118.589
rwrist -59.8593
rhand -8.99313 -48.0965
rfingers 7.12502
rthumb 16.953 -77.3766
lclavicle -1.9953e-014 -2.78299e-014
lhumerus 34.038 32.6115 -10.4453
lradius 36.8161
lwrist 41.0613
lhand -29.02 -21.6767
lfingers 7.12502
lthumb -2.37104 8.28984
rfemur -8.24758 5.78798 -4.26582
rtibia 9.70979
rfoot -31.0006 -23.1332
rtoes 52.1816
lfemur -25.3229 1.0574 -26.9025
ltibia 20.1211
lfoot -13.3437 10.093
ltoes 10.505
174
root 4.07979 17.5657 3.516 20.3959 -16.7862 -2.00609
lowerback -9.2228 4.03204 3.78514
upperback -11.353 5.13632 -0.271303
thorax -6.45959 2.25837 -2.19454
lowerneck -6.39945 10.6657 8.53532
upperneck 25.6743 12.1167 6.33299
head 9.3285 7.12822 1.99117
rclavicle 3.98315e-014 3.3197e-014
rhumerus 9.16782 -24.8159 -0.101166
rradius 118.486
rwrist -59.5765
rhand -9.14951 -47.877
rfingers 7.12502
rthumb 16.8025 -77.17
lclavicle 3.98315e-014 3.3197e-014
lhumerus 33.8884 32.4929 -10.4817
lradius 37.0872
lwrist 41.2656
lhand -28.8512 -21.5572
lfingers 7.12502
lthumb -2.20798 8.41116
rfemur -8.33762 5.9072 -4.29205
rtibia 9.89872
rfoot -31.1524 -22.8324
rtoes 52.202
lfemur -25.3782 1.07784 -26.8908
ltibia 20.3541
lfoot -13.3894 10.1977
ltoes 10.5667
